<?xml version="1.0" encoding="utf-8"?>
<!-- Generator: Adobe Illustrator 16.0.0, SVG Export Plug-In . SVG Version: 6.00 Build 0)  -->
<!DOCTYPE svg PUBLIC "-//W3C//DTD SVG 1.1//EN" "http://www.w3.org/Graphics/SVG/1.1/DTD/svg11.dtd">
<svg version="1.1" id="Layer_1" xmlns="http://www.w3.org/2000/svg" xmlns:xlink="http://www.w3.org/1999/xlink" x="0px" y="0px"
	 width="5000px" height="5000px" viewBox="0 0 5000 5000" enable-background="new 0 0 5000 5000" xml:space="preserve">
<g>
	<g>
		<path d="M4393.167,774.333L3643.334,24.5c-15.084-15.167-35.917-24.5-59-24.5H1001C771.25,0,584.334,186.917,584.334,416.667
			v4166.667C584.334,4813.084,771.25,5000,1001,5000h3000c229.75,0,416.667-186.916,416.667-416.666v-3750
			C4417.667,810.25,4408.334,789.416,4393.167,774.333z M3667.667,284.5L4133.166,750h-465.499V284.5z M4251,4583.334
			c0,137.833-112.166,250-250,250H1001c-137.833,0-250-112.167-250-250V416.667c0-137.834,112.167-250,250-250h2500v666.667
			c0,46.083,37.334,83.333,83.334,83.333H4251V4583.334z"/>
	</g>
</g>
<g>
	<g>
		<path d="M1334.334,1166.667C1150.5,1166.667,1001,1316.167,1001,1500c0,183.834,149.5,333.333,333.334,333.333
			c183.833,0,333.333-149.5,333.333-333.333S1518.166,1166.667,1334.334,1166.667z M1334.334,1666.667
			c-91.917,0-166.667-74.75-166.667-166.667s74.75-166.667,166.667-166.667c91.916,0,166.666,74.75,166.666,166.667
			S1426.25,1666.667,1334.334,1666.667z"/>
	</g>
</g>
<g>
	<g>
		<path d="M1334.334,2083.334c-183.834,0-333.334,149.5-333.334,333.333S1150.5,2750,1334.334,2750
			c183.833,0,333.333-149.5,333.333-333.333S1518.166,2083.334,1334.334,2083.334z M1334.334,2583.334
			c-91.917,0-166.667-74.75-166.667-166.667S1242.417,2250,1334.334,2250c91.916,0,166.666,74.75,166.666,166.667
			S1426.25,2583.334,1334.334,2583.334z"/>
	</g>
</g>
<g>
	<g>
		<path d="M1334.334,3000C1150.5,3000,1001,3149.5,1001,3333.334c0,183.833,149.5,333.333,333.334,333.333
			c183.833,0,333.333-149.5,333.333-333.333C1667.667,3149.5,1518.166,3000,1334.334,3000z M1334.334,3500
			c-91.917,0-166.667-74.75-166.667-166.666c0-91.917,74.75-166.667,166.667-166.667c91.916,0,166.666,74.75,166.666,166.667
			C1501,3425.25,1426.25,3500,1334.334,3500z"/>
	</g>
</g>
<g>
	<g>
		<path d="M1334.334,3916.667C1150.5,3916.667,1001,4066.167,1001,4250c0,183.834,149.5,333.334,333.334,333.334
			c183.833,0,333.333-149.5,333.333-333.334C1667.667,4066.167,1518.166,3916.667,1334.334,3916.667z M1334.334,4416.667
			c-91.917,0-166.667-74.75-166.667-166.667c0-91.916,74.75-166.666,166.667-166.666c91.916,0,166.666,74.75,166.666,166.666
			C1501,4341.917,1426.25,4416.667,1334.334,4416.667z"/>
	</g>
</g>
<g>
	<g>
		<rect x="1834.334" y="1583.333" width="2166.666" height="166.667"/>
	</g>
</g>
<g>
	<g>
		<rect x="1917.667" y="416.667" width="1166.667" height="166.667"/>
	</g>
</g>
<g>
	<g>
		<rect x="1667.667" y="750" width="1666.667" height="166.667"/>
	</g>
</g>
<g>
	<g>
		<rect x="1834.334" y="2500" width="2166.666" height="166.667"/>
	</g>
</g>
<g>
	<g>
		<rect x="1834.334" y="3416.667" width="2166.666" height="166.667"/>
	</g>
</g>
<g>
	<g>
		<rect x="1834.334" y="4333.334" width="2166.666" height="166.666"/>
	</g>
</g>
<g>
	<g>
		<rect x="2501" y="1250" width="166.667" height="166.667"/>
	</g>
</g>
<g>
	<g>
		<rect x="2167.667" y="1250" width="166.667" height="166.667"/>
	</g>
</g>
<g>
	<g>
		<rect x="1834.334" y="1250" width="166.666" height="166.667"/>
	</g>
</g>
</svg>
